<svg width="35" height="35" viewBox="0 0 35 35" fill="none" xmlns="http://www.w3.org/2000/svg">
<path d="M24.0851 34.2422H11.1731C5.5511 34.2422 0.976074 29.6679 0.976074 24.0449V11.1328C0.976074 5.51081 5.5501 0.936035 11.1731 0.936035H24.0851C29.7081 0.936035 34.2821 5.50981 34.2821 11.1328V24.0449C34.2821 29.6669 29.7081 34.2422 24.0851 34.2422ZM11.1731 3.43115C6.9261 3.43115 3.47009 6.88679 3.47009 11.1338V24.0459C3.47009 28.2929 6.9261 31.749 11.1731 31.749H24.0851C28.3331 31.749 31.7881 28.2929 31.7881 24.0459V11.1338C31.7881 6.88679 28.3321 3.43115 24.0851 3.43115H11.1731Z" fill="white"/>
<path d="M17.6292 26.0142C12.9842 26.0142 9.2041 22.2349 9.2041 17.5889C9.2041 12.9429 12.9832 9.16406 17.6292 9.16406C22.2752 9.16406 26.0541 12.9429 26.0541 17.5889C26.0541 22.2349 22.2752 26.0142 17.6292 26.0142ZM17.6292 11.7178C14.3922 11.7178 11.7582 14.3519 11.7582 17.5889C11.7582 20.8259 14.3922 23.46 17.6292 23.46C20.8661 23.46 23.5001 20.8259 23.5001 17.5889C23.5001 14.3519 20.8661 11.7178 17.6292 11.7178Z" fill="white"/>
<path d="M29.1641 8.24805C29.1641 9.45905 28.1821 10.4409 26.9701 10.4409C25.7581 10.4409 24.7771 9.45905 24.7771 8.24805C24.7771 7.03705 25.7591 6.0542 26.9701 6.0542C28.1811 6.0542 29.1641 7.03605 29.1641 8.24805Z" fill="white"/>
</svg>
