<svg width="34" height="35" viewBox="0 0 34 35" fill="none" xmlns="http://www.w3.org/2000/svg">
<path fill-rule="evenodd" clip-rule="evenodd" d="M17.3472 34.2422C26.5442 34.2422 34.0001 26.7859 34.0001 17.5889C34.0001 8.39187 26.5442 0.936035 17.3472 0.936035C8.15017 0.936035 0.694092 8.39187 0.694092 17.5889C0.694092 20.3439 1.36312 22.9419 2.54712 25.2319C2.62312 22.3399 2.62809 20.5479 2.61609 19.4219C2.61509 19.2799 2.61012 18.8841 2.62512 18.3521C2.65212 17.3771 2.69016 16.2182 2.99316 14.8462C3.13416 14.2062 3.28016 13.7408 3.41516 13.3398C3.92316 11.8328 4.6771 10.4559 5.7041 9.23486C5.7161 9.22086 5.73107 9.20878 5.74707 9.19678C5.75507 9.19078 5.76217 9.1852 5.76917 9.1792C5.89616 8.9732 6.06718 8.80277 6.23718 8.63477C6.28018 8.59177 6.32409 8.54788 6.36609 8.50488C7.08109 7.77188 7.88609 7.15107 8.76208 6.62207C8.79508 6.60207 8.83107 6.58578 8.86707 6.57178C8.88407 6.56478 8.90011 6.5578 8.91711 6.5498C9.34611 6.2568 9.81809 6.0471 10.2931 5.8501C10.8821 5.6061 11.4742 5.36981 12.1072 5.25781C12.4842 5.12981 12.8741 5.06884 13.2651 5.00684C13.3681 4.99084 13.4711 4.97503 13.5741 4.95703C14.1421 4.86103 14.7192 4.84114 15.2902 4.84814C16.3052 4.86114 17.3231 4.89696 18.3251 5.10596C18.3831 5.11796 18.4421 5.13009 18.5001 5.14209C18.8901 5.22209 19.2812 5.30311 19.6592 5.43311C20.3642 5.60511 21.0251 5.89124 21.6791 6.19824C22.2741 6.47724 22.8071 6.85207 23.3411 7.22607L23.3651 7.24316C23.5981 7.34916 23.7871 7.51803 23.9731 7.68604C24.0131 7.72203 24.0551 7.75892 24.0961 7.79492C24.8771 8.47592 25.5612 9.24491 26.1072 10.1289C26.2072 10.2899 26.2971 10.458 26.3881 10.625C26.4291 10.702 26.4711 10.778 26.5131 10.854C26.8961 11.501 27.1421 12.2029 27.3491 12.9209C27.6421 13.9329 27.7721 14.968 27.7501 16.021C27.7181 17.533 27.3771 18.973 26.7131 20.335C26.6911 20.38 26.6661 20.4209 26.6401 20.4639C26.6291 20.4819 26.6171 20.5 26.6061 20.519C26.3081 21.082 25.9851 21.631 25.5801 22.125C25.5301 22.187 25.5171 22.2488 25.5181 22.3208C25.6921 23.0418 25.8371 23.7708 25.9331 24.5068C26.0221 25.1888 26.1001 25.8711 26.1381 26.5591C26.1561 26.8861 26.1521 26.8121 26.1691 27.0391C26.2511 28.0931 26.2261 29.151 26.2601 30.207C26.2601 30.224 26.2602 30.2719 26.2322 30.2959C26.2042 30.3199 26.1611 30.3131 26.1201 30.3091C26.1031 30.3071 26.0861 30.3052 26.0721 30.3052C25.2401 30.3082 24.4082 30.3112 23.5762 30.3052C23.4262 30.3052 23.2751 30.3051 23.1241 30.3081C22.7881 30.3121 22.4511 30.316 22.1151 30.29C22.0941 30.252 22.0881 30.2099 22.0881 30.1699C22.0661 30.0349 22.0711 29.8982 22.0751 29.7622C22.0771 29.6992 22.0791 29.6362 22.0791 29.5732C22.0691 28.3572 22.0221 27.1422 21.9021 25.9312C21.8821 25.7382 21.8592 25.5441 21.8362 25.3511C21.8252 25.2621 21.8141 25.1739 21.8041 25.0859C21.6801 25.0969 21.5701 25.1468 21.4591 25.1958C21.3631 25.2388 21.2681 25.2808 21.1641 25.2988C19.5421 25.9178 17.8571 26.1702 16.1321 26.0752C14.3541 25.9772 12.8231 25.3248 11.6951 23.8838C11.6801 23.8648 11.6681 23.8438 11.6571 23.8218C11.6511 23.8118 11.6471 23.802 11.6411 23.793C11.0821 23.051 10.7552 22.2228 10.6292 21.2998C10.4932 20.2998 10.5951 19.337 10.9441 18.396C11.1031 17.965 11.3031 17.5529 11.5911 17.1899C12.2161 16.2469 13.0631 15.5708 14.0991 15.1338C14.8021 14.8368 15.5381 14.6861 16.3041 14.6401C17.6581 14.5561 18.9612 14.7529 20.2172 15.2549C21.4412 15.7439 22.4611 16.5151 23.2911 17.5391C23.4151 17.3701 23.4421 17.1721 23.4701 16.9761C23.4761 16.9331 23.4821 16.8911 23.4891 16.8491C23.7151 15.4851 23.5131 14.1819 22.9011 12.9429C22.8861 12.9129 22.8751 12.8811 22.8641 12.8501C22.8581 12.8351 22.8532 12.8192 22.8472 12.8032C22.5522 12.2972 22.2271 11.8162 21.8231 11.3872C21.5901 11.1412 21.3291 10.9288 21.0681 10.7168C20.9701 10.6368 20.8721 10.5581 20.7751 10.4771C20.2791 10.1781 19.7761 9.89315 19.2341 9.68115C18.8371 9.52515 18.4271 9.41613 18.0171 9.30713C17.9171 9.28013 17.8172 9.25405 17.7172 9.22705C16.9262 9.09205 16.1312 9.00621 15.3262 9.01221C14.5262 9.01821 13.7422 9.11605 12.9722 9.33105C12.9352 9.34105 12.8962 9.34607 12.8582 9.35107C12.8402 9.35307 12.8221 9.35491 12.8041 9.35791C12.1481 9.57691 11.5211 9.86222 10.9061 10.1782C10.0901 10.6672 9.40615 11.3041 8.80615 12.0371C8.78815 12.0591 8.76507 12.0782 8.74207 12.0972C8.73207 12.1052 8.72118 12.114 8.71118 12.124C8.67618 12.176 8.64108 12.2278 8.60608 12.2798C8.33408 12.6858 8.06307 13.0908 7.84607 13.5308C7.26907 14.7038 6.94314 15.9451 6.84814 17.2461C6.75914 18.4771 6.76114 19.7089 6.76514 20.9419C6.76614 21.4889 6.76809 22.0351 6.76208 22.5811C6.75508 23.1441 6.75408 24.551 6.73108 25.979C6.71308 27.077 6.67808 28.5431 6.60608 30.3071C7.69208 31.2281 9.62912 32.635 12.3961 33.498C12.3961 33.495 14.8401 34.2432 17.3451 34.2432L17.3472 34.2422ZM6.68115 24.356L6.68213 24.354C6.68213 24.354 6.68215 24.354 6.68115 24.356ZM7.13416 9.20312C7.15916 9.22013 7.17711 9.24204 7.18811 9.26904C7.17111 9.24604 7.15216 9.22412 7.13416 9.20312ZM18.8411 9.37109C18.8631 9.36509 18.8801 9.3558 18.8931 9.3418C18.8891 9.3668 18.8741 9.38109 18.8411 9.37109ZM12.2811 22.7739C12.3061 22.7609 12.3312 22.7498 12.3572 22.7378C12.3372 22.7558 12.3091 22.7669 12.2811 22.7739ZM19.4991 21.4819C19.5441 21.4629 19.5901 21.4448 19.6351 21.4248C19.7171 21.3898 19.7991 21.3581 19.8821 21.3271C20.1321 21.2311 20.3831 21.134 20.5931 20.957C19.8661 19.63 18.7551 18.9048 17.2411 18.8008C16.3981 18.7428 15.5992 18.8148 15.0082 19.5278C14.9952 19.5548 14.9821 19.5819 14.9701 19.6099C14.9411 19.6719 14.9111 19.7339 14.8851 19.7969C14.6691 20.3119 14.6601 20.8162 14.9601 21.3062C15.3181 21.7132 15.7842 21.8671 16.3102 21.9131C16.6352 21.9411 16.9561 21.9199 17.2771 21.8999C17.3111 21.8979 17.3461 21.8961 17.3801 21.8931C18.0801 21.8491 18.7711 21.7418 19.4371 21.5078C19.4591 21.4998 19.4791 21.4909 19.5001 21.4829L19.4991 21.4819ZM24.4971 26.8809C24.5171 26.8609 24.5631 26.854 24.5991 26.854C24.5651 26.864 24.5311 26.8719 24.4971 26.8809Z" fill="white"/>
</svg>
