<svg width="34" height="25" viewBox="0 0 34 25" fill="none" xmlns="http://www.w3.org/2000/svg">
<path d="M32.8972 10.3368V14.8417C32.8832 14.9657 32.8612 15.0888 32.8562 15.2128C32.7932 16.7018 32.6583 18.1817 32.4203 19.6557C32.0543 21.9147 30.5042 23.158 28.6202 23.392C27.3132 23.554 26.0043 23.6579 24.6923 23.7309C22.5553 23.8489 20.4143 23.8792 18.2743 23.9072C15.4343 23.9442 12.5952 23.8738 9.7572 23.7538C8.1612 23.6858 6.56923 23.594 4.98523 23.374C3.13023 23.116 1.80723 21.9377 1.38123 20.1137C1.09823 18.9027 0.990227 17.6681 0.907227 16.4311C0.871227 15.9021 0.835293 15.3732 0.800293 14.8442C0.800293 13.3422 0.800293 11.8408 0.800293 10.3388C0.814293 10.2048 0.836285 10.0709 0.842285 9.93695C0.905285 8.43695 1.01621 6.94278 1.29321 5.46478C1.69521 3.31778 2.92925 2.13176 5.07825 1.79876C6.38025 1.59676 7.69325 1.50901 9.00525 1.45501C11.1332 1.36601 13.2622 1.30581 15.3922 1.27581C18.2432 1.23581 21.0923 1.30716 23.9413 1.42816C25.5473 1.49616 27.1513 1.5799 28.7443 1.8139C30.6263 2.0909 31.9183 3.27484 32.3323 5.12884C32.6013 6.33184 32.7142 7.55614 32.7922 8.78314C32.8252 9.30214 32.8633 9.8198 32.8993 10.3388L32.8972 10.3368Z" stroke="white" stroke-width="0.948" stroke-miterlimit="10"/>
<path d="M14.2592 12.5808C14.2592 13.7948 14.2592 15.0079 14.2592 16.2219C14.2592 16.5339 14.2792 16.5448 14.5452 16.3938C16.6822 15.1818 18.8191 13.9687 20.9551 12.7547C21.2361 12.5947 21.2361 12.5808 20.9451 12.4158C18.8091 11.2018 16.6722 9.98863 14.5352 8.77663C14.2872 8.63563 14.2592 8.65272 14.2582 8.93972C14.2562 10.1537 14.2592 11.3668 14.2592 12.5808Z" fill="white"/>
</svg>
