<svg width="212" height="21" viewBox="0 0 212 21" fill="none" xmlns="http://www.w3.org/2000/svg">
<path d="M48.7281 18.912V14.789L41.6241 3.015C41.3261 2.493 41.5251 2.121 42.1211 2.121H45.5241C45.9221 2.121 46.2191 2.27 46.4181 2.643L50.9391 10.641L55.5091 2.643C55.7081 2.271 56.0061 2.121 56.4031 2.121H59.7561C60.3521 2.121 60.5511 2.493 60.2531 3.015L53.1491 14.789V18.912C53.1491 19.384 52.8761 19.657 52.4041 19.657H49.4731C49.0011 19.657 48.7281 19.384 48.7281 18.912Z" fill="white"/>
<path d="M73.5443 19.086L72.6502 16.925H64.1303L63.2362 19.086C63.0872 19.458 62.7892 19.657 62.3672 19.657H59.0382C58.4672 19.657 58.2432 19.309 58.4672 18.788L65.7952 2.692C65.9692 2.294 66.2422 2.121 66.6642 2.121H70.1172C70.5392 2.121 70.8122 2.295 70.9862 2.692L78.3142 18.788C78.5372 19.31 78.3143 19.657 77.7423 19.657H74.4132C73.9912 19.657 73.6933 19.458 73.5443 19.086ZM71.1843 13.348L68.4022 6.641L65.6202 13.348H71.1843Z" fill="white"/>
<path d="M80.7712 18.912V2.866C80.7712 2.394 81.0443 2.121 81.5163 2.121H85.0682C85.4652 2.121 85.7632 2.27 85.9622 2.618L91.3282 11.635L96.6682 2.618C96.8672 2.27 97.1652 2.121 97.5622 2.121H101.114C101.586 2.121 101.859 2.394 101.859 2.866V18.912C101.859 19.384 101.586 19.657 101.114 19.657H98.2082C97.7362 19.657 97.4632 19.384 97.4632 18.912V9.101L93.0662 16.379C92.8672 16.727 92.5692 16.876 92.1722 16.876H90.4332C90.0352 16.876 89.7382 16.727 89.5392 16.379L85.1673 9.176V18.913C85.1673 19.385 84.8942 19.658 84.4222 19.658H81.5163C81.0443 19.658 80.7712 19.384 80.7712 18.912Z" fill="white"/>
<path d="M119.397 19.086L118.503 16.925H109.983L109.089 19.086C108.94 19.458 108.642 19.657 108.22 19.657H104.891C104.32 19.657 104.096 19.309 104.32 18.788L111.648 2.692C111.822 2.294 112.095 2.121 112.517 2.121H115.97C116.392 2.121 116.665 2.295 116.839 2.692L124.167 18.788C124.39 19.31 124.167 19.657 123.595 19.657H120.266C119.844 19.657 119.546 19.458 119.397 19.086ZM117.037 13.348L114.255 6.641L111.473 13.348H117.037Z" fill="white"/>
<path d="M135.41 18.912V6.368H130.666C130.194 6.368 129.921 6.095 129.921 5.623V2.866C129.921 2.394 130.194 2.121 130.666 2.121H144.601C145.073 2.121 145.346 2.394 145.346 2.866V5.623C145.346 6.095 145.073 6.368 144.601 6.368H139.857V18.912C139.857 19.384 139.584 19.657 139.112 19.657H136.156C135.684 19.657 135.41 19.384 135.41 18.912Z" fill="white"/>
<path d="M161.417 15.161L163.926 18.763C164.274 19.285 164.05 19.657 163.454 19.657H160.101C159.703 19.657 159.405 19.508 159.207 19.16L157.021 15.658H152.252V18.912C152.252 19.384 151.979 19.657 151.507 19.657H148.576C148.104 19.657 147.831 19.384 147.831 18.912V2.866C147.831 2.394 148.104 2.121 148.576 2.121H157.593C162.561 2.121 164.697 4.456 164.697 8.703V9.175C164.697 12.031 163.752 14.217 161.417 15.161ZM152.251 11.485H157.219C159.082 11.485 160.249 11.237 160.249 9.125V8.727C160.249 6.616 159.156 6.342 157.219 6.342H152.251V11.485Z" fill="white"/>
<path d="M168.009 18.912V2.866C168.009 2.394 168.282 2.121 168.754 2.121H171.66C172.132 2.121 172.405 2.394 172.405 2.866V18.912C172.405 19.384 172.132 19.657 171.66 19.657H168.754C168.282 19.657 168.009 19.384 168.009 18.912Z" fill="white"/>
<path d="M176.032 18.912V2.866C176.032 2.394 176.305 2.121 176.777 2.121H185.819C190.737 2.121 192.65 4.456 192.65 8.703V9.423C192.65 13.671 190.738 15.906 185.819 15.906H180.453V18.911C180.453 19.383 180.18 19.656 179.708 19.656H176.777C176.305 19.656 176.032 19.384 176.032 18.912ZM185.421 11.733C187.16 11.733 188.228 11.485 188.228 9.373V8.728C188.228 6.617 187.234 6.343 185.421 6.343H180.453V11.733H185.421Z" fill="white"/>
<path d="M194.767 14.516C194.742 14.019 195.04 13.746 195.512 13.746H198.468C198.915 13.746 199.114 13.994 199.238 14.466C199.412 15.137 199.859 15.435 200.629 15.435H205.622C206.715 15.435 207.187 15.137 207.187 14.242C207.187 13.323 206.789 13.025 205.771 12.95L200.157 12.528C196.357 12.23 194.866 10.814 194.866 7.51C194.866 4.132 196.555 2.12 200.753 2.12H205.423C209.174 2.12 211.037 3.958 211.285 7.262C211.31 7.759 211.012 8.032 210.54 8.032H207.584C207.137 8.032 206.938 7.784 206.814 7.312C206.64 6.641 206.193 6.343 205.423 6.343H200.803C199.71 6.343 199.238 6.641 199.238 7.536C199.238 8.431 199.635 8.728 200.654 8.802L206.268 9.225C210.044 9.498 211.559 10.988 211.559 14.267C211.559 17.645 209.87 19.657 205.672 19.657H200.629C196.878 19.657 195.015 17.82 194.767 14.516Z" fill="white"/>
<path d="M6.36212 19.01L7.57412 17.192L5.45312 14.01V17.646H6.36212V19.01Z" fill="white"/>
<path d="M18.1801 20.374H26.0881L16.3621 5.829V14.01H18.1801V20.374Z" fill="white"/>
<path d="M25.907 16.242H27.56V20.374L29.763 17.068L25.907 11.283V16.242Z" fill="white"/>
<path d="M16.362 4.011L17.343 5.478V0.374001H15.835V4.801L16.362 4.011Z" fill="white"/>
<path d="M15.081 5.932V0.374001H13.573V8.194L15.081 5.932Z" fill="white"/>
<path d="M12.819 9.326V0.374001H11.311V11.588L12.819 9.326Z" fill="white"/>
<path d="M10.5561 12.719V0.374001H9.0481V14.981L10.5561 12.719Z" fill="white"/>
<path d="M19.6059 8.862V0.374001H18.0969V6.606L19.6059 8.862Z" fill="white"/>
<path d="M30.9169 16.98V0.374001H29.4089V14.718L30.9169 16.98Z" fill="white"/>
<path d="M28.655 13.587V0.374001H27.146V11.325L28.655 13.587Z" fill="white"/>
<path d="M21.8681 12.245V0.374001H20.3601V9.989L21.8681 12.245Z" fill="white"/>
<path d="M25.907 9.465L26.392 10.193V0.374001H24.884V10.999L25.907 9.465Z" fill="white"/>
<path d="M22.9621 13.882L24.1301 12.13V0.374001H22.6221V13.372L22.9621 13.882Z" fill="white"/>
<path d="M5.45293 12.192L6.03192 13.06V0.374001H4.52393V13.587L5.45293 12.192Z" fill="white"/>
<path d="M8.18013 16.283L8.29413 16.112V0.374001H6.78613V14.191L8.18013 16.283Z" fill="white"/>
<path d="M31.6709 0.374001V18.111L33.1789 20.374V0.374001H31.6709Z" fill="white"/>
<path d="M1.50703 0.374001H-0.000976562V20.374L1.50703 18.111V0.374001Z" fill="white"/>
<path d="M3.76998 14.718V0.374001H2.26099V16.98L3.76998 14.718Z" fill="white"/>
</svg>
